<?xml version="1.0" encoding="utf-8"?>
<!-- Generator: Adobe Illustrator 24.2.3, SVG Export Plug-In . SVG Version: 6.00 Build 0)  -->
<svg version="1.1" id="Ebene_1" xmlns:serif="http://www.serif.com/"
	 xmlns="http://www.w3.org/2000/svg" xmlns:xlink="http://www.w3.org/1999/xlink" x="0px" y="0px" viewBox="0 0 3840 2160"
	 style="enable-background:new 0 0 3840 2160;" xml:space="preserve">
<style type="text/css">
	.st0{fill-rule:evenodd;clip-rule:evenodd;fill:#6441A5;}
	.st1{enable-background:new    ;}
	.st2{fill:#CCCCCC;}
	.st3{fill:#BBBBBB;}
</style>
<g transform="matrix(1.05677,0,0,1.17768,-1.00801,-22.7992)">
	<rect x="-251.7" y="-205.4" class="st0" width="4184.8" height="2267.9"/>
</g>
<g transform="matrix(1,0,0,1,0.284922,2.84922)">
	<g transform="matrix(1,0,0,1,-18.3352,-28.604)">
		<g class="st1">
			<path class="st2" d="M686.2,1841.3l73.9,22.3c-5,20.7-12.8,38-23.5,51.9c-10.7,13.9-23.9,24.4-39.7,31.5
				c-15.8,7.1-36,10.6-60.4,10.6c-29.7,0-53.9-4.3-72.7-12.9c-18.8-8.6-35-23.8-48.7-45.5c-13.7-21.7-20.5-49.5-20.5-83.3
				c0-45.1,12-79.8,36-104.1c24-24.2,58-36.4,101.9-36.4c34.4,0,61.4,7,81.1,20.8c19.7,13.9,34.3,35.2,43.8,64l-74.4,16.6
				c-2.6-8.3-5.3-14.4-8.2-18.2c-4.7-6.5-10.5-11.4-17.3-14.9c-6.8-3.5-14.5-5.2-22.9-5.2c-19.1,0-33.8,7.7-43.9,23.1
				c-7.7,11.4-11.5,29.3-11.5,53.7c0,30.2,4.6,51,13.8,62.2c9.2,11.2,22.1,16.8,38.7,16.8c16.1,0,28.3-4.5,36.6-13.6
				C676.5,1871.7,682.5,1858.6,686.2,1841.3z"/>
			<path class="st2" d="M801,1680.1h84.3v205.7h131.6v67.2H801V1680.1z"/>
			<path class="st2" d="M1058.6,1680.1h84.5V1953h-84.5V1680.1z"/>
			<path class="st2" d="M1203.2,1680.1h140.1c30.5,0,53.4,7.3,68.6,21.8c15.2,14.5,22.8,35.2,22.8,62c0,27.5-8.3,49.1-24.8,64.6
				c-16.6,15.5-41.8,23.3-75.8,23.3h-46.2V1953h-84.7V1680.1z M1287.9,1796.5h20.7c16.3,0,27.7-2.8,34.2-8.5
				c6.6-5.6,9.9-12.9,9.9-21.7c0-8.6-2.9-15.8-8.6-21.8c-5.7-6-16.4-8.9-32.2-8.9h-24V1796.5z"/>
			<path class="st2" d="M1595.4,1816.7c0-44.5,12.4-79.2,37.2-104c24.8-24.8,59.4-37.2,103.7-37.2c45.4,0,80.4,12.2,105,36.6
				c24.6,24.4,36.9,58.5,36.9,102.5c0,31.9-5.4,58-16.1,78.5c-10.7,20.4-26.2,36.3-46.5,47.6s-45.6,17-75.8,17
				c-30.8,0-56.2-4.9-76.4-14.7c-20.2-9.8-36.5-25.3-49-46.5C1601.7,1875.2,1595.4,1848.6,1595.4,1816.7z M1679.7,1817.1
				c0,27.5,5.1,47.3,15.4,59.4c10.2,12,24.2,18.1,41.8,18.1c18.1,0,32.1-5.9,42.1-17.7c9.9-11.8,14.9-32.9,14.9-63.5
				c0-25.7-5.2-44.5-15.5-56.3c-10.4-11.8-24.4-17.8-42.2-17.8c-17,0-30.6,6-40.9,18.1C1684.9,1769.4,1679.7,1789.3,1679.7,1817.1z"
				/>
			<path class="st2" d="M1923.9,1680.1h208.5v58.6h-123.8v47.6h105.7v55.1h-105.7V1953h-84.7V1680.1z"/>
			<path class="st2" d="M2178.1,1680.1h208.5v58.6h-123.8v47.6h105.7v55.1h-105.7V1953h-84.7V1680.1z"/>
			<path class="st2" d="M2432,1680.1h84.3v205.7h131.6v67.2H2432V1680.1z"/>
			<path class="st2" d="M2689.6,1680.1h84.5V1953h-84.5V1680.1z"/>
			<path class="st2" d="M2835.2,1680.1h78.7l102.7,151v-151h79.5V1953h-79.5l-102.2-149.8V1953h-79.3V1680.1z"/>
			<path class="st2" d="M3151.9,1680.1h226v58.3h-141.5v43.4h131.2v55.7h-131.2v53.8H3382v61.8h-230V1680.1z"/>
		</g>
	</g>
	<g>
		<path class="st3" d="M1586.6,157.6l-239,226.4v815.5h286.8v226.4l239-226.4H2065l430.5-407.7V157.6H1586.6z M2399.9,746.6
			l-191.2,181.1h-191.2L1850,1086.2V927.7h-215.3V248.2h765.2V746.6z"/>
		
			<rect x="2160.7" y="414" transform="matrix(0.7071 -0.7071 0.7071 0.7071 258.0231 1722.6848)" class="st3" width="95.6" height="271.7"/>
		
			<rect x="2072.6" y="501.9" transform="matrix(0.7071 -0.7071 0.7071 0.7071 258.147 1722.6335)" class="st3" width="271.7" height="95.6"/>
		
			<rect x="1745.4" y="500.7" transform="matrix(0.7071 -0.7071 0.7071 0.7071 163.1685 1491.0211)" class="st3" width="272" height="95.6"/>
		
			<rect x="1833.4" y="412.7" transform="matrix(0.7071 -0.7071 0.7071 0.7071 162.9933 1490.9485)" class="st3" width="95.6" height="272"/>
	</g>
</g>
</svg>
