<?xml version="1.0" encoding="utf-8"?>
<!-- Generator: Adobe Illustrator 24.3.0, SVG Export Plug-In . SVG Version: 6.00 Build 0)  -->
<svg version="1.1" id="Layer_1" xmlns="http://www.w3.org/2000/svg" xmlns:xlink="http://www.w3.org/1999/xlink" x="0px" y="0px"
	 viewBox="0 0 200 200" style="enable-background:new 0 0 200 200;" xml:space="preserve">
<style type="text/css">
	.st0{fill:#E4EAF6;}
	.st1{fill:#E8E2F1;}
	.st2{fill:#E0D9ED;}
	.st3{fill:#E1C3A0;}
	.st4{fill:#C7CFE2;}
	.st5{fill:#EFF2FA;}
	.st6{fill:#B1A0D2;}
	.st7{fill:#9FA7BF;}
	.st8{fill:#8367B7;}
	.st9{fill:#EBD2AF;}
	.st10{fill:#707487;}
	.st11{fill:#8F96AC;}
</style>
<path class="st0" d="M49.8,29.7l-5,10h37.9l-5-10c-1.2-2.3-3.6-3.8-6.2-3.8H56C53.4,25.9,51,27.3,49.8,29.7z"/>
<path class="st1" d="M155.2,87.9H44.8c-1.9,0-3.4-1.5-3.4-3.4V36.2c0-1.9,1.5-3.4,3.4-3.4h110.3c1.9,0,3.4,1.5,3.4,3.4v48.3
	C158.6,86.4,157.1,87.9,155.2,87.9z"/>
<path class="st2" d="M162.1,94.8H37.9c-1.9,0-3.4-1.5-3.4-3.4V43.1c0-1.9,1.5-3.4,3.4-3.4h124.1c1.9,0,3.4,1.5,3.4,3.4v48.3
	C165.5,93.3,164,94.8,162.1,94.8z"/>
<path class="st3" d="M199.1,100.2l-15.4-27.7c-0.6-1.1-1.8-1.8-3-1.8H19.3c-1.3,0-2.4,0.7-3,1.8L0.9,100.2c-0.6,1-0.9,2.2-0.9,3.3
	V119h200v-15.5C200,102.3,199.7,101.2,199.1,100.2z"/>
<path class="st4" d="M42.9,43.5l-5,10h42.2l-5-10c-1.2-2.3-3.6-3.8-6.2-3.8H49.1C46.5,39.7,44.1,41.1,42.9,43.5z"/>
<path class="st5" d="M162.1,101.7H37.9c-1.9,0-3.4-1.5-3.4-3.4V50c0-1.9,1.5-3.4,3.4-3.4h124.1c1.9,0,3.4,1.5,3.4,3.4v48.3
	C165.5,100.2,164,101.7,162.1,101.7z"/>
<path class="st6" d="M169,108.6H31c-1.9,0-3.4-1.5-3.4-3.4V56.9c0-1.9,1.5-3.4,3.4-3.4H169c1.9,0,3.4,1.5,3.4,3.4v48.3
	C172.4,107.1,170.9,108.6,169,108.6z"/>
<path class="st7" d="M36,57.3l-5,10h51.7l-5-10c-1.2-2.3-3.6-3.8-6.2-3.8H42.2C39.6,53.4,37.2,54.9,36,57.3z"/>
<path class="st5" d="M169,115.5H31c-1.9,0-3.4-1.5-3.4-3.4V63.8c0-1.9,1.5-3.4,3.4-3.4H169c1.9,0,3.4,1.5,3.4,3.4v48.3
	C172.4,114,170.9,115.5,169,115.5z"/>
<path class="st8" d="M175.9,122.4H24.1c-1.9,0-3.4-1.5-3.4-3.4V70.7c0-1.9,1.5-3.4,3.4-3.4h151.7c1.9,0,3.4,1.5,3.4,3.4V119
	C179.3,120.9,177.8,122.4,175.9,122.4z"/>
<path class="st9" d="M196.6,101.7h-56.5c-1.3,0-2.5,0.7-3.1,1.9l-4,8.1c-1.2,2.3-3.6,3.8-6.2,3.8H73.2c-2.6,0-5-1.5-6.2-3.8l-4-8.1
	c-0.6-1.2-1.8-1.9-3.1-1.9H3.4c-1.9,0-3.4,1.5-3.4,3.4v65.5c0,1.9,1.5,3.4,3.4,3.4h193.1c1.9,0,3.4-1.5,3.4-3.4v-65.5
	C200,103.3,198.5,101.7,196.6,101.7z"/>
<path class="st5" d="M127.6,94.8H169c1.9,0,3.4-1.5,3.4-3.4V77.6c0-1.9-1.5-3.4-3.4-3.4h-41.4c-1.9,0-3.4,1.5-3.4,3.4v13.8
	C124.1,93.3,125.7,94.8,127.6,94.8z"/>
<path class="st10" d="M148.3,81h-13.8c-1.9,0-3.4,1.5-3.4,3.4l0,0c0,1.9,1.5,3.4,3.4,3.4h13.8c1.9,0,3.4-1.5,3.4-3.4l0,0
	C151.7,82.6,150.2,81,148.3,81z"/>
<path class="st11" d="M162.1,81h-3.4c-1.9,0-3.4,1.5-3.4,3.4l0,0c0,1.9,1.5,3.4,3.4,3.4h3.4c1.9,0,3.4-1.5,3.4-3.4l0,0
	C165.5,82.6,164,81,162.1,81z"/>
</svg>
