<?xml version="1.0" encoding="utf-8"?>
<!-- Generator: Adobe Illustrator 24.2.3, SVG Export Plug-In . SVG Version: 6.00 Build 0)  -->
<svg version="1.1" id="Ebene_1" focusable="false" xmlns="http://www.w3.org/2000/svg" xmlns:xlink="http://www.w3.org/1999/xlink"
	 x="0px" y="0px" viewBox="0 0 512 512" style="enable-background:new 0 0 512 512;" xml:space="preserve">
<style type="text/css">
	.st0{fill:#BBBBBB;}
</style>
<path class="st0" d="M120.8,0L24.3,91.4v329.2h115.8V512l96.5-91.4h77.3L487.7,256V0H120.8z M449.1,237.8l-77.2,73.1h-77.2l-67.6,64
	v-64h-86.9V36.6h308.9V237.8z"/>
<rect x="352.5" y="103.5" transform="matrix(0.7071 -0.7071 0.7071 0.7071 -3.0353 309.312)" class="st0" width="38.6" height="109.7"/>
<rect x="317" y="139" transform="matrix(0.7071 -0.7071 0.7071 0.7071 -3.0353 309.312)" class="st0" width="109.7" height="38.6"/>
<rect x="184.9" y="138.6" transform="matrix(0.7071 -0.7071 0.7071 0.7071 -41.4192 215.7552)" class="st0" width="109.8" height="38.6"/>
<rect x="220.4" y="103" transform="matrix(0.7071 -0.7071 0.7071 0.7071 -41.4192 215.7552)" class="st0" width="38.6" height="109.8"/>
</svg>
