<?xml version="1.0" encoding="UTF-8" standalone="no"?>
<!DOCTYPE svg PUBLIC "-//W3C//DTD SVG 1.1//EN" "http://www.w3.org/Graphics/SVG/1.1/DTD/svg11.dtd">
<svg width="100%" height="100%" viewBox="0 0 231 307" version="1.1" xmlns="http://www.w3.org/2000/svg" xmlns:xlink="http://www.w3.org/1999/xlink" xml:space="preserve" xmlns:serif="http://www.serif.com/" style="fill-rule:evenodd;clip-rule:evenodd;stroke-linejoin:round;stroke-miterlimit:2;">
    <g transform="matrix(3.29691,0,0,3.29691,0,0)">
        <g transform="matrix(-0.997828,0,0,0.945716,70.0803,-0.46321)">
            <rect x="-11.243" y="-11.618" width="92.8" height="122.554" style="fill:rgb(147,147,147);"/>
        </g>
        <g transform="matrix(1,0,0,1,-1.94035,3.38896)">
            <g transform="matrix(74.2169,0,0,74.2169,14.0375,69.9458)">
                <path d="M0.367,-0.185L0.242,-0.185C0.242,-0.202 0.242,-0.213 0.242,-0.217C0.242,-0.258 0.248,-0.291 0.262,-0.317C0.275,-0.343 0.302,-0.372 0.342,-0.405C0.382,-0.437 0.406,-0.459 0.414,-0.469C0.426,-0.485 0.432,-0.502 0.432,-0.521C0.432,-0.548 0.421,-0.571 0.4,-0.59C0.378,-0.609 0.35,-0.619 0.313,-0.619C0.279,-0.619 0.25,-0.609 0.226,-0.589C0.203,-0.569 0.187,-0.539 0.178,-0.498L0.052,-0.514C0.055,-0.572 0.08,-0.621 0.126,-0.662C0.172,-0.703 0.233,-0.723 0.308,-0.723C0.386,-0.723 0.449,-0.703 0.496,-0.661C0.542,-0.62 0.565,-0.572 0.565,-0.518C0.565,-0.487 0.557,-0.459 0.54,-0.432C0.523,-0.405 0.486,-0.368 0.43,-0.321C0.401,-0.297 0.383,-0.278 0.376,-0.263C0.369,-0.249 0.366,-0.222 0.367,-0.185ZM0.242,-0L0.242,-0.137L0.379,-0.137L0.379,-0L0.242,-0Z" style="fill:rgb(108,108,108);fill-rule:nonzero;"/>
            </g>
        </g>
    </g>
</svg>
