<?xml version="1.0" encoding="utf-8"?>
<!-- Generator: Adobe Illustrator 24.3.0, SVG Export Plug-In . SVG Version: 6.00 Build 0)  -->
<svg version="1.1" xmlns="http://www.w3.org/2000/svg" xmlns:xlink="http://www.w3.org/1999/xlink" x="0px" y="0px"
	 viewBox="0 0 915.5 305.7" style="enable-background:new 0 0 915.5 305.7;" xml:space="preserve">
<style type="text/css">
	.st0{fill:#6441A5;}
	.st1{opacity:0.69;fill:#6A003E;}
	.st2{fill:#FFFFFF;}
	.st3{fill:#48005F;}
	.st4{fill:url(#fire_1_);}
	.st5{opacity:0.71;fill:#E6A410;}
	.st6{fill:#72151A;}
</style>
<g id="Logo_3">
</g>
<g id="Logo_2">
</g>
<g id="Logo_1">
	<g id="cloud_3_">
		<path id="cloud_2_" class="st0" d="M446.6,214.6c0,10.8-2.2,21-6.2,30.4c-11.8,27.5-39.1,46.7-70.8,46.7H102.8
			C50.5,291.6,8,249.2,8,196.8c0-1.2,0-2.5,0.1-3.7C10,142.4,51.7,102,102.8,102h0c0.4-52,42.7-94,94.8-94c40,0,74.2,24.7,88.1,59.8
			c10.8-12.2,26.6-19.9,44.1-19.9c32.6,0,58.9,26.4,58.9,58.9c0,11.5-3.3,22.2-9,31.3C417.6,143.2,446.6,175.5,446.6,214.6z"/>
		<path id="shadow" class="st1" d="M443.5,245c-11.8,27.5-39.1,46.7-70.8,46.7H105.9c-52.4,0-94.8-42.5-94.8-94.8
			c0-1.2,4.2-12.1,6-12.4c-7.3,23,11.7,89.3,76.3,89.3c62.7,0,58.3-53.8,59.4-66.5c-0.5,11.7,10.5,67.5,69.9,67.5
			c66.4,0,86-71.5,86-71.5s-2.3,76.9,75.5,76.4C416.2,279.4,433.1,264.5,443.5,245z"/>
		<path id="light" class="st2" d="M369.6,293.9C369.6,293.9,369.6,293.9,369.6,293.9l-266.8,0c0,0,0,0,0,0
			C55.5,293.9,17,255.4,17,208c0-47.4,53.9-105.2,116-93c9.5-1.9,4.6-7.7-1-9.6c-3.7-1.3-14.2-3.4-21.3-2.5
			c4.7-42.9,42.1-77.7,89.6-78.1c33.7-0.3,64.1,17.1,78.2,47.3c0.4,1.5,3.8,2.9,3.8,2.9s5.8,2,9.8-1.4c9.7-8.2,24.5-11.8,37.3-10.8
			c30.8,2.4,49.7,24.9,49.7,52.5c0,11.3-1.1,23.3-6.8,31c-2.3,3.1-5.8,8-2.1,9.2c0,0,6.9-1.5,13.9,0.1c31,6.6,53.5,37.8,53.5,70.1
			C437.7,263.3,407.1,293.9,369.6,293.9z M379.8,138.2c5.7-9.1,9-19.8,9-31.3c0-32.6-26.4-58.9-58.9-58.9
			c-17.6,0-33.3,7.7-44.1,19.9C271.9,32.7,237.6,8,197.7,8c-52.1,0-94.4,42-94.8,94h0c-51.1,0-92.8,40.5-94.7,91.1
			C8,194.3,8,195.6,8,196.8c0,52.4,42.5,94.8,94.8,94.8h266.8c31.8,0,59.1-19.2,70.8-46.7c4-9.3,6.2-19.6,6.2-30.4
			C446.6,175.5,417.6,143.2,379.8,138.2z"/>
		<path id="stroke_1_" class="st3" d="M391.7,132.4c3.3-8,5.1-16.7,5.1-25.6c0-36.9-30-66.9-66.9-66.9c-15.2,0-29.8,5.2-41.5,14.5
			C280.7,40,269.7,27.6,256,18.2C238.8,6.3,218.7,0,197.7,0c-27.3,0-53,10.6-72.4,29.8c-17.6,17.4-28.1,40.1-30.1,64.5
			C42,98.2,0,142.7,0,196.8c0,56.7,46.1,102.8,102.8,102.8c0,0,0,0,0.1,0h266.6c0,0,0,0,0.1,0c46.9,0,85.1-38.2,85.1-85.1
			C454.6,175.8,428.3,142.3,391.7,132.4z M369.6,283.6C369.6,283.6,369.6,283.6,369.6,283.6l-266.8,0c0,0,0,0,0,0
			c-47.9,0-86.8-39-86.8-86.8c0-47.9,38.9-86.8,86.8-86.8c11.7,0,23.1,2.3,33.8,6.8c4.1,1.7,8.8-0.2,10.5-4.3
			c1.7-4.1-0.2-8.8-4.3-10.5c-10.1-4.3-20.7-6.9-31.6-7.7c1.9-20.1,10.7-38.8,25.3-53.2C152.9,24.9,174.6,16,197.7,16
			c35.8,0,67.5,21.5,80.7,54.7c0,0,0,0.1,0.1,0.1c0.1,0.2,0.1,0.3,0.2,0.5c0,0.1,0.1,0.2,0.1,0.3c0.1,0.1,0.1,0.3,0.2,0.4
			c0.1,0.1,0.2,0.2,0.2,0.3c0.1,0.1,0.1,0.2,0.2,0.3c0.1,0.1,0.2,0.3,0.3,0.4c0,0.1,0.1,0.1,0.1,0.2c0.1,0.2,0.3,0.3,0.5,0.5
			c0,0,0,0,0.1,0.1c0,0,0,0,0,0c0.2,0.2,0.4,0.3,0.5,0.4c0,0,0.1,0,0.1,0.1c0.2,0.1,0.4,0.3,0.6,0.4c0,0,0.1,0,0.1,0.1
			c0.2,0.1,0.4,0.2,0.6,0.3c0,0,0,0,0.1,0c1.9,0.9,4.1,1,6.2,0.1c0.2-0.1,0.3-0.1,0.5-0.2c0,0,0,0,0,0c1.1-0.5,2-1.2,2.7-2.1
			c9.7-10.8,23.5-17,38-17c28.1,0,50.9,22.9,50.9,50.9c0,16.3-7.9,31.7-21.1,41.3c-3.6,2.6-4.4,7.6-1.8,11.2c1.6,2.2,4,3.3,6.5,3.3
			c1.6,0,3.3-0.5,4.7-1.5c5.5-4,10.4-8.8,14.4-14.2c31.7,6.5,55.1,34.8,55.1,67.7C438.6,252.6,407.7,283.6,369.6,283.6z"/>
	</g>
	<g id="fire_3_">
		<linearGradient id="fire_1_" gradientUnits="userSpaceOnUse" x1="227.3176" y1="300.2617" x2="227.3176" y2="99.7176">
			<stop  offset="8.618518e-02" style="stop-color:#F9DF16"/>
			<stop  offset="0.7854" style="stop-color:#FFEC7C"/>
		</linearGradient>
		<path id="fire_2_" class="st4" d="M258.6,291.7c-19.3,7.1-36.8,6.1-48.3,3.9c-8.5-1.6-13.7-3.9-13.7-3.9s-52.9-24-50.9-81.6
			c1.2-33.3,16.2-46.3,20.5-49.3c0.7-0.5,1.1-0.7,1.1-0.7s8.6,31,27.2,22c19.2-9.4-6.8-32,3-66.9c4.1-14.5,11.5-24.6,18.4-31.2
			c0,0,0,0,0,0c2.3-2.3,4.6-4.1,6.6-5.7c5-3.8,8.7-5.4,8.7-5.4s-14.4,40.3,14.2,59.5c16.9,11.3,61,27.8,63.4,81.1
			C310.9,259.1,277.4,284.8,258.6,291.7z"/>
		<path id="light_1_" class="st2" d="M197.6,199.1c-24.6,5.5-35.7-18.1-33.8-28.6c0.5-2.7,1.3-4.8,2.4-9.6c0.7-0.5,1.1-0.7,1.1-0.7
			s8.6,31,27.2,22c19.2-9.4-6.8-32,3-66.9c4.1-14.5,12.3-27.9,26-31.7c-0.9,5.6-14.3,19.4-16.8,29.7c-5.4,22.8-1.1,37.2,6.9,52.6
			C219.1,176.4,216.1,194.9,197.6,199.1z"/>
		<path id="shadow_1_" class="st5" d="M258.6,291.7c-19.3,7.1-36.8,6.1-48.3,3.9c-32.6-8.9-45.1-34.6-48.1-48.8
			c30.8,47.8,140.6,31.7,133-43.3c-2.8-27.7-15.1-41.4-45.2-58.7c-32.6-18.8-33-48.8-25-64.1c2.9-4.2,6.1-7.8,6.1-7.8
			s-14.4,40.3,14.2,59.5c16.9,11.3,61,27.8,63.4,81.1C310.9,259.1,277.4,284.8,258.6,291.7z"/>
		<path id="stroke" class="st6" d="M227.6,305.2c-7.2,0-13.6-0.8-18.7-1.8c-9.2-1.7-14.8-4.1-15.4-4.4c0,0-0.1,0-0.1,0
			c-0.6-0.3-14.7-6.8-28.6-20.9c-18.6-18.9-27.9-42.5-27-68.3c1.2-34.3,16.7-51.8,25.7-56.8c2.1-1.2,4.7-1.3,7-0.4
			c2.3,0.9,4,2.9,4.6,5.2c1.3,4.6,5.7,15,11,17.4c1.1,0.5,2.5,0.8,5-0.4c3.1-1.5,4-2,0.5-15.9c-2.9-11.4-7-27.1-1.6-46
			c6-21.3,18.5-34.1,27.9-41.1c5.6-4.2,9.8-6.1,10.3-6.3c2.9-1.3,6.3-0.7,8.7,1.5c2.3,2.2,3.1,5.5,2.1,8.5c0,0.1-3.2,9.3-3.2,20.3
			c0.1,13.5,4.9,23.6,14.3,29.9c2.3,1.5,5.2,3.2,8.6,5.2c21,12.1,56.1,32.4,58.4,82.2c1,21.9-5.6,42.3-19,59
			c-9.8,12.2-23.4,22.3-36.4,27.1c0,0,0,0,0,0C249.2,303.8,237.6,305.2,227.6,305.2z M258.6,291.7L258.6,291.7L258.6,291.7z
			 M199.9,284.4c0.5,0.2,4.9,2,12,3.3c10.3,2,26.4,3,44-3.5c8-2.9,19.9-10.3,29.4-22.1c11.1-13.8,16.3-30,15.5-48.2
			c-1.9-41-31.1-57.9-50.4-69.1c-3.6-2.1-6.7-3.9-9.5-5.7c-14-9.4-21.5-24.5-21.4-43.6c0-1.3,0-2.7,0.1-4
			c-5.6,5.9-11.2,14.3-14.4,25.9c-4.2,14.7-1,26.9,1.7,37.6c3,11.8,6.8,26.5-8.9,34.2c-6.3,3.1-12.7,3.3-18.6,0.6
			c-7-3.1-11.9-9.9-15.1-15.9c-4.6,6.3-10,17.6-10.6,36.4C152,261.2,198,283.5,199.9,284.4z"/>
	</g>
	<g>
		<g>
			<path d="M504.7,39.2h19.7c21.3,0,35,10.6,35,34.6s-13.7,35.2-34.1,35.2h-20.6V39.2z M523.5,96.2c11.8,0,19.8-5.8,19.8-22.5
				c0-16.7-8-21.9-19.8-21.9h-3v44.3H523.5z"/>
			<path d="M569.7,97.6l10.7-8c2.6,4.8,6.2,7,9.7,7c5.6,0,8.7-2.9,8.7-12.2V39.2h15.8v46.5c0,13.4-7,24.5-22.4,24.5
				C581.5,110.2,574.5,106,569.7,97.6z"/>
			<path d="M647.2,39.2h18.9l21.9,69.7h-16.7l-9.1-35.3c-1.9-7-3.8-15.2-5.7-22.5h-0.4c-1.7,7.4-3.5,15.5-5.5,22.5l-9.2,35.3h-16.1
				L647.2,39.2z M639.7,80h33.6v12.3h-33.6V80z"/>
			<path d="M699.1,39.2h16.2l18.2,34.7l6.9,15.3h0.4c-0.7-7.4-2-17.1-2-25.4V39.2h15v69.7h-16.2l-18.2-34.8l-6.9-15.2h-0.4
				c0.7,7.7,2,17,2,25.3v24.7h-15V39.2z"/>
			<path d="M770.4,74.4c0-23.1,15.4-36.6,34-36.6c10.1,0,17.3,4.3,22,9.1L818.1,57c-3.5-3.2-7.2-5.5-13.2-5.5
				c-10.7,0-18.4,8.4-18.4,22.4c0,14.3,6.5,22.7,19.6,22.7c2.8,0,5.7-0.7,7.4-2.1v-12h-11.6V69.6h25.6v32.2
				c-4.8,4.7-13.3,8.4-23,8.4C785.4,110.2,770.4,97.9,770.4,74.4z"/>
			<path d="M842.2,73.7c0-22.8,12.9-35.8,31.7-35.8c18.8,0,31.7,13.2,31.7,35.8c0,22.8-12.9,36.5-31.7,36.5
				C855.1,110.2,842.2,96.5,842.2,73.7z M889.4,73.7c0-14-6-22.2-15.5-22.2c-9.5,0-15.5,8.3-15.5,22.2c0,14,6,22.8,15.5,22.8
				C883.4,96.6,889.4,87.7,889.4,73.7z"/>
			<path d="M518.4,135.4h-19.2v-13.2h54.2v13.2h-19.2v56.5h-15.8V135.4z"/>
			<path d="M565.7,122.2h16.2l4.8,32.6c0.9,7.4,1.9,14.7,2.8,22.1h0.4c1.4-7.4,2.8-14.8,4.2-22.1l7.5-32.6H615l7.5,32.6
				c1.4,7.1,2.8,14.6,4.2,22.1h0.4c0.9-7.4,1.9-14.9,2.8-22.1l4.8-32.6h15.1l-12.4,69.7h-19.8l-6.8-31.7c-1.1-5.4-2-11-2.8-16.2
				h-0.4c-0.8,5.2-1.7,10.8-2.8,16.2l-6.6,31.7h-19.5L565.7,122.2z"/>
			<path d="M667.7,122.2h15.8v69.7h-15.8V122.2z"/>
			<path d="M721.8,135.4h-19.2v-13.2h54.2v13.2h-19.2v56.5h-15.8V135.4z"/>
			<path d="M772.6,157.4c0-23.1,15.3-36.6,32.9-36.6c9,0,16.3,4.2,21,9.1l-8.3,10.1c-3.5-3.3-7.3-5.5-12.3-5.5
				c-9.6,0-17.1,8.4-17.1,22.4c0,14.3,6.7,22.7,16.9,22.7c5.7,0,10.2-2.8,13.6-6.5l8.3,9.9c-5.8,6.7-13.5,10.2-22.5,10.2
				C787.4,193.2,772.6,180.9,772.6,157.4z"/>
			<path d="M846.4,122.2h15.8V149h24.1v-26.9H902v69.7h-15.8v-29.1h-24.1v29.1h-15.8V122.2z"/>
			<path d="M517.7,205.2h18.9l21.9,69.7h-16.7l-9.1-35.3c-1.9-7-3.8-15.2-5.7-22.5h-0.4c-1.7,7.4-3.5,15.5-5.5,22.5l-9.2,35.3h-16.1
				L517.7,205.2z M510.3,246h33.6v12.3h-33.6V246z"/>
			<path d="M566.1,205.2h25.1c14.8,0,26.9,5.1,26.9,21.7c0,16-12.1,22.9-26.9,22.9h-9.3v25.1h-15.8V205.2z M589.9,237.3
				c8.3,0,12.7-3.5,12.7-10.4c0-6.9-4.5-9.2-12.7-9.2h-8.1v19.6H589.9z M588.3,245.6l10.9-10.1l22.3,39.3h-17.6L588.3,245.6z"/>
			<path d="M628.3,240.4c0-23.1,15.3-36.6,32.9-36.6c9,0,16.3,4.2,21,9.1l-8.3,10.1c-3.5-3.3-7.3-5.5-12.3-5.5
				c-9.6,0-17.1,8.4-17.1,22.4c0,14.3,6.7,22.7,16.9,22.7c5.7,0,10.2-2.8,13.6-6.5l8.3,9.9c-5.8,6.7-13.5,10.2-22.5,10.2
				C643.1,276.2,628.3,263.9,628.3,240.4z"/>
			<path d="M693.9,205.2h15.8V232h24.1v-26.9h15.8v69.7h-15.8v-29.1h-24.1v29.1h-15.8V205.2z"/>
			<path d="M766,205.2h15.8v69.7H766V205.2z"/>
			<path d="M789.2,205.2h16.7l8.4,32.5c2.1,7.6,3.5,14.7,5.6,22.4h0.4c2.1-7.7,3.6-14.7,5.6-22.4l8.2-32.5h16.1l-21,69.7h-18.9
				L789.2,205.2z"/>
			<path d="M857.7,205.2h43.7v13.2h-27.9v14h23.8v13.2h-23.8v16.1h29v13.2h-44.8V205.2z"/>
		</g>
	</g>
</g>
</svg>
